HIERARCHY
ROOT Hips
{
	OFFSET -0.001795 -0.223333 0.028219
	CHANNELS 6 Xposition Yposition Zposition Zrotation Yrotation Xrotation
	JOINT LeftUpLeg
	{
		OFFSET 0.069520 -0.091406 -0.006815
		CHANNELS 3 Zrotation Yrotation Xrotation
		JOINT LeftLeg
		{
			OFFSET 0.034277 -0.375199 -0.004496
			CHANNELS 3 Zrotation Yrotation Xrotation
			JOINT LeftFoot
			{
				OFFSET -0.013596 -0.397961 -0.043693
				CHANNELS 3 Zrotation Yrotation Xrotation
				JOINT LeftToe
				{
					OFFSET 0.026358 -0.055791 0.119288
					CHANNELS 3 Zrotation Yrotation Xrotation
					End Site
					{
						OFFSET 0.000000 0.000000 0.000000
					}
				}
			}
		}
	}
	JOINT RightUpLeg
	{
		OFFSET -0.067670 -0.090522 -0.004320
		CHANNELS 3 Zrotation Yrotation Xrotation
		JOINT RightLeg
		{
			OFFSET -0.038290 -0.382569 -0.008850
			CHANNELS 3 Zrotation Yrotation Xrotation
			JOINT RightFoot
			{
				OFFSET 0.015774 -0.398415 -0.042312
				CHANNELS 3 Zrotation Yrotation Xrotation
				JOINT RightToe
				{
					OFFSET -0.025372 -0.048144 0.123348
					CHANNELS 3 Zrotation Yrotation Xrotation
					End Site
					{
						OFFSET 0.000000 0.000000 0.000000
					}
				}
			}
		}
	}
	JOINT Spine
	{
		OFFSET -0.002533 0.108963 -0.026696
		CHANNELS 3 Zrotation Yrotation Xrotation
		JOINT Spine1
		{
			OFFSET 0.005487 0.135180 0.001092
			CHANNELS 3 Zrotation Yrotation Xrotation
			JOINT Spine2
			{
				OFFSET 0.001457 0.052922 0.025425
				CHANNELS 3 Zrotation Yrotation Xrotation
				JOINT Neck
				{
					OFFSET -0.002778 0.213870 -0.042857
					CHANNELS 3 Zrotation Yrotation Xrotation
					JOINT Head
					{
						OFFSET 0.005152 0.064970 0.051349
						CHANNELS 3 Zrotation Yrotation Xrotation
						End Site
						{
							OFFSET 0.000000 0.000000 0.000000
						}
					}
				}
				JOINT LeftShoulder
				{
					OFFSET 0.078845 0.121749 -0.034090
					CHANNELS 3 Zrotation Yrotation Xrotation
					JOINT LeftArm
					{
						OFFSET 0.090977 0.030469 -0.008868
						CHANNELS 3 Zrotation Yrotation Xrotation
						JOINT LeftForeArm
						{
							OFFSET 0.259612 -0.012772 -0.027456
							CHANNELS 3 Zrotation Yrotation Xrotation
							JOINT LeftHand
							{
								OFFSET 0.249234 0.008986 -0.001171
								CHANNELS 3 Zrotation Yrotation Xrotation
								End Site
								{
									OFFSET 0.000000 0.000000 0.000000
								}
							}
						}
					}
				}
				JOINT RightShoulder
				{
					OFFSET -0.081759 0.118833 -0.038615
					CHANNELS 3 Zrotation Yrotation Xrotation
					JOINT RightArm
					{
						OFFSET -0.096012 0.032551 -0.009143
						CHANNELS 3 Zrotation Yrotation Xrotation
						JOINT RightForeArm
						{
							OFFSET -0.253742 -0.013329 -0.021401
							CHANNELS 3 Zrotation Yrotation Xrotation
							JOINT RightHand
							{
								OFFSET -0.255298 0.007772 -0.005559
								CHANNELS 3 Zrotation Yrotation Xrotation
								End Site
								{
									OFFSET 0.000000 0.000000 0.000000
								}
							}
						}
					}
				}
			}
		}
	}
}
MOTION
Frames: 7
Frame Time: 0.050000
0.000000 0.748983 0.000000 -69.475213 -34.985574 105.411655 -23.780359 39.885911 -100.790041 37.212419 -18.905767 47.436258 3.654766 -25.794948 -50.429460 0.000000 0.000000 0.000000 -4.748248 11.340879 -33.054299 51.093552 3.213715 81.763313 -0.745326 -45.246960 -54.419998 0.000000 0.000000 0.000000 13.912399 40.073392 91.472015 2.625949 0.290793 -37.161794 -17.656642 -10.421172 17.107694 5.016538 -1.498734 -36.892588 0.000000 0.000000 0.000000 46.291798 -8.700631 -1.069616 8.349622 -37.088669 -0.556970 27.064150 21.312097 6.931944 0.000000 0.000000 0.000000 -29.257242 -5.961842 5.388085 -42.439448 30.831229 -18.608195 -41.413548 -16.704268 5.198272 0.000000 0.000000 0.000000
-0.067036 0.763336 0.073215 -66.067713 -28.840995 109.080772 -19.902130 38.918991 -96.241287 39.999378 -15.362795 35.980510 0.679743 -29.667588 -47.003465 0.000000 0.000000 0.000000 -13.358446 8.013890 -23.620899 54.230603 1.707563 72.301654 -5.564483 -30.722599 -61.434979 0.000000 0.000000 0.000000 7.807532 41.261726 84.184053 7.306313 -0.134670 -33.724234 -16.990799 -17.280566 16.181929 -2.498707 0.170633 -38.331002 0.000000 0.000000 0.000000 39.262006 -10.907949 -1.121455 18.705003 -27.575648 -0.985754 25.360107 25.129860 8.186438 0.000000 0.000000 0.000000 -26.817268 4.442632 7.329523 -51.044856 12.471148 -12.789258 -35.994383 -20.707132 5.322908 0.000000 0.000000 0.000000
-0.146122 0.811343 0.152581 -66.337530 -21.490087 110.647347 -1.319459 52.081900 -79.504341 20.225787 -5.621434 33.023517 -6.958394 -24.516067 -22.729502 0.000000 0.000000 0.000000 -19.935121 9.520042 -17.189841 65.869965 -1.617284 67.237047 2.818615 -48.090056 -70.100266 0.000000 0.000000 0.000000 6.557145 43.791363 83.949545 3.005607 0.153101 -31.183008 -14.900768 -22.554679 20.255450 -11.363293 2.192204 -48.043690 0.000000 0.000000 0.000000 47.004942 -6.073603 -3.312865 16.079623 -24.639321 0.298010 13.549813 27.421962 5.578197 0.000000 0.000000 0.000000 -36.794785 0.024322 10.580008 -40.819200 3.753740 -7.975363 -34.179180 -20.243084 2.662760 0.000000 0.000000 0.000000
-0.231482 0.858708 0.233656 -60.061176 -14.532139 113.457349 4.083642 56.125490 -83.279124 18.959727 -7.978420 47.733438 -9.576739 -29.012098 -13.525211 0.000000 0.000000 0.000000 -32.975518 19.305819 -4.734020 72.571768 -4.509492 49.248848 1.427231 -49.968245 -68.449038 0.000000 0.000000 0.000000 -0.902320 40.380953 73.650379 2.205668 0.456599 -31.034130 -14.489308 -20.473317 25.485659 -12.332803 2.920391 -54.190701 0.000000 0.000000 0.000000 48.655613 -7.299725 -3.165363 20.322521 -17.618318 0.932568 9.414575 27.661879 4.307441 0.000000 0.000000 0.000000 -39.204924 -0.848394 10.091970 -37.667302 -2.650543 -3.499527 -27.678041 -25.056683 2.244488 0.000000 0.000000 0.000000
-0.319974 0.883101 0.314370 -49.837697 -9.488312 118.501293 4.024157 56.011323 -94.499496 13.330326 -12.663893 88.344674 1.169500 -21.764211 -28.678222 0.000000 0.000000 0.000000 -31.699387 35.434293 24.416206 61.953450 4.041545 12.210155 -17.895864 -49.359209 -40.458060 0.000000 0.000000 0.000000 -2.705650 35.907678 69.739848 0.633112 0.731238 -31.000067 -16.222267 -26.810621 24.553244 -14.025724 3.293372 -56.531831 0.000000 0.000000 0.000000 47.281009 -5.823170 -2.244105 26.572015 -16.959636 1.923969 10.026482 25.684960 4.225582 0.000000 0.000000 0.000000 -43.678518 -2.166084 11.453656 -30.847008 -3.237135 -2.267712 -26.525513 -27.307438 1.301929 0.000000 0.000000 0.000000
-0.405637 0.887394 0.396803 -39.154466 -6.596977 125.979838 5.425293 58.170772 -104.038475 11.637551 -15.693444 113.136341 -12.918152 -19.168603 9.776830 0.000000 0.000000 0.000000 -18.494596 35.315971 43.501768 36.457918 6.995705 -12.998676 -41.086972 -42.586882 6.076450 0.000000 0.000000 0.000000 -4.858514 32.572297 61.913251 0.020199 0.822255 -29.654236 -19.404621 -35.865457 27.506634 -19.016626 3.118134 -54.648874 0.000000 0.000000 0.000000 48.432767 -3.902948 -1.721814 28.236978 -15.127997 2.930948 16.083382 20.195749 5.857284 0.000000 0.000000 0.000000 -42.335483 -1.003629 11.136627 -28.578441 -1.892414 -3.736697 -29.983396 -32.032092 0.796268 0.000000 0.000000 0.000000
-0.487705 0.890123 0.485703 -29.297144 2.055554 133.137352 38.899970 68.246583 -77.623358 20.516185 -15.106711 120.035991 -19.770111 -6.860936 41.313101 0.000000 0.000000 0.000000 -7.361190 28.715585 51.662505 17.001540 5.490512 -27.151235 -41.082587 -29.895749 31.661373 0.000000 0.000000 0.000000 -6.360419 29.050795 52.193628 -1.366784 0.880641 -26.654971 -18.046590 -40.162304 28.237641 -15.356002 2.104318 -55.897839 0.000000 0.000000 0.000000 46.174302 -2.193471 -0.406915 33.345713 -16.537267 3.762736 15.595456 19.678690 5.799075 0.000000 0.000000 0.000000 -44.282789 1.565654 11.575243 -20.882662 -0.087442 -2.563060 -29.700752 -36.908805 -0.842544 0.000000 0.000000 0.000000
